<mxfile host="drawio-plugin" modified="2023-03-05T14:48:15.268Z" agent="5.0 (Windows NT 6.2; Win64; x64) AppleWebKit/537.36 (KHTML, like Gecko) Chrome/98.0.4758.102 Safari/537.36" etag="5p5vQliRN1NQHg7kYP_W" version="20.5.3" type="embed"><diagram name="Page-1" id="e56a1550-8fbb-45ad-956c-1786394a9013"><mxGraphModel dx="554" dy="1225" grid="1" gridSize="10" guides="1" tooltips="1" connect="1" arrows="1" fold="1" page="1" pageScale="1" pageWidth="1100" pageHeight="850" background="none" math="0" shadow="0"><root><mxCell id="0"/><mxCell id="1" parent="0"/><mxCell id="c6sAwi9QVTVZ_ExDH39v-31" value="Куда?" style="edgeStyle=orthogonalEdgeStyle;rounded=0;orthogonalLoop=1;jettySize=auto;html=1;startArrow=ERmandOne;startFill=0;endArrow=ERzeroToMany;endFill=0;" parent="1" source="pWjKHq5pREKSBnfmIH6U-14" target="pWjKHq5pREKSBnfmIH6U-70" edge="1"><mxGeometry relative="1" as="geometry"><Array as="points"><mxPoint x="720" y="320"/><mxPoint x="720" y="320"/></Array></mxGeometry></mxCell><mxCell id="pWjKHq5pREKSBnfmIH6U-14" value="Город" style="shape=table;startSize=30;container=1;collapsible=1;childLayout=tableLayout;fixedRows=1;rowLines=0;fontStyle=1;align=center;resizeLast=1;" parent="1" vertex="1"><mxGeometry x="840" y="310" width="180" height="90" as="geometry"/></mxCell><mxCell id="pWjKHq5pREKSBnfmIH6U-18" value="" style="shape=tableRow;horizontal=0;startSize=0;swimlaneHead=0;swimlaneBody=0;fillColor=none;collapsible=0;dropTarget=0;points=[[0,0.5],[1,0.5]];portConstraint=eastwest;top=0;left=0;right=0;bottom=0;" parent="pWjKHq5pREKSBnfmIH6U-14" vertex="1"><mxGeometry y="30" width="180" height="30" as="geometry"/></mxCell><mxCell id="pWjKHq5pREKSBnfmIH6U-19" value="" style="shape=partialRectangle;connectable=0;fillColor=none;top=0;left=0;bottom=0;right=0;editable=1;overflow=hidden;" parent="pWjKHq5pREKSBnfmIH6U-18" vertex="1"><mxGeometry width="30" height="30" as="geometry"><mxRectangle width="30" height="30" as="alternateBounds"/></mxGeometry></mxCell><mxCell id="pWjKHq5pREKSBnfmIH6U-20" value="Название" style="shape=partialRectangle;connectable=0;fillColor=none;top=0;left=0;bottom=0;right=0;align=left;spacingLeft=6;overflow=hidden;" parent="pWjKHq5pREKSBnfmIH6U-18" vertex="1"><mxGeometry x="30" width="150" height="30" as="geometry"><mxRectangle width="150" height="30" as="alternateBounds"/></mxGeometry></mxCell><mxCell id="pWjKHq5pREKSBnfmIH6U-21" value="" style="shape=tableRow;horizontal=0;startSize=0;swimlaneHead=0;swimlaneBody=0;fillColor=none;collapsible=0;dropTarget=0;points=[[0,0.5],[1,0.5]];portConstraint=eastwest;top=0;left=0;right=0;bottom=0;" parent="pWjKHq5pREKSBnfmIH6U-14" vertex="1"><mxGeometry y="60" width="180" height="30" as="geometry"/></mxCell><mxCell id="pWjKHq5pREKSBnfmIH6U-22" value="" style="shape=partialRectangle;connectable=0;fillColor=none;top=0;left=0;bottom=0;right=0;editable=1;overflow=hidden;" parent="pWjKHq5pREKSBnfmIH6U-21" vertex="1"><mxGeometry width="30" height="30" as="geometry"><mxRectangle width="30" height="30" as="alternateBounds"/></mxGeometry></mxCell><mxCell id="pWjKHq5pREKSBnfmIH6U-23" value="Размер" style="shape=partialRectangle;connectable=0;fillColor=none;top=0;left=0;bottom=0;right=0;align=left;spacingLeft=6;overflow=hidden;" parent="pWjKHq5pREKSBnfmIH6U-21" vertex="1"><mxGeometry x="30" width="150" height="30" as="geometry"><mxRectangle width="150" height="30" as="alternateBounds"/></mxGeometry></mxCell><mxCell id="pWjKHq5pREKSBnfmIH6U-27" value="Машина" style="shape=table;startSize=30;container=1;collapsible=1;childLayout=tableLayout;fixedRows=1;rowLines=0;fontStyle=1;align=center;resizeLast=1;" parent="1" vertex="1"><mxGeometry x="400" y="-60" width="189.9999999999999" height="90" as="geometry"/></mxCell><mxCell id="pWjKHq5pREKSBnfmIH6U-31" value="" style="shape=tableRow;horizontal=0;startSize=0;swimlaneHead=0;swimlaneBody=0;fillColor=none;collapsible=0;dropTarget=0;points=[[0,0.5],[1,0.5]];portConstraint=eastwest;top=0;left=0;right=0;bottom=0;" parent="pWjKHq5pREKSBnfmIH6U-27" vertex="1"><mxGeometry y="30" width="189.9999999999999" height="30" as="geometry"/></mxCell><mxCell id="pWjKHq5pREKSBnfmIH6U-32" value="" style="shape=partialRectangle;connectable=0;fillColor=none;top=0;left=0;bottom=0;right=0;editable=1;overflow=hidden;" parent="pWjKHq5pREKSBnfmIH6U-31" vertex="1"><mxGeometry width="30" height="30" as="geometry"><mxRectangle width="30" height="30" as="alternateBounds"/></mxGeometry></mxCell><mxCell id="pWjKHq5pREKSBnfmIH6U-33" value="Название" style="shape=partialRectangle;connectable=0;fillColor=none;top=0;left=0;bottom=0;right=0;align=left;spacingLeft=6;overflow=hidden;" parent="pWjKHq5pREKSBnfmIH6U-31" vertex="1"><mxGeometry x="30" width="159.9999999999999" height="30" as="geometry"><mxRectangle width="159.9999999999999" height="30" as="alternateBounds"/></mxGeometry></mxCell><mxCell id="pWjKHq5pREKSBnfmIH6U-110" style="shape=tableRow;horizontal=0;startSize=0;swimlaneHead=0;swimlaneBody=0;fillColor=none;collapsible=0;dropTarget=0;points=[[0,0.5],[1,0.5]];portConstraint=eastwest;top=0;left=0;right=0;bottom=0;" parent="pWjKHq5pREKSBnfmIH6U-27" vertex="1"><mxGeometry y="60" width="189.9999999999999" height="30" as="geometry"/></mxCell><mxCell id="pWjKHq5pREKSBnfmIH6U-111" style="shape=partialRectangle;connectable=0;fillColor=none;top=0;left=0;bottom=0;right=0;editable=1;overflow=hidden;" parent="pWjKHq5pREKSBnfmIH6U-110" vertex="1"><mxGeometry width="30" height="30" as="geometry"><mxRectangle width="30" height="30" as="alternateBounds"/></mxGeometry></mxCell><mxCell id="pWjKHq5pREKSBnfmIH6U-112" value="Скорость" style="shape=partialRectangle;connectable=0;fillColor=none;top=0;left=0;bottom=0;right=0;align=left;spacingLeft=6;overflow=hidden;" parent="pWjKHq5pREKSBnfmIH6U-110" vertex="1"><mxGeometry x="30" width="159.9999999999999" height="30" as="geometry"><mxRectangle width="159.9999999999999" height="30" as="alternateBounds"/></mxGeometry></mxCell><mxCell id="pWjKHq5pREKSBnfmIH6U-40" value="Человек" style="shape=table;startSize=30;container=1;collapsible=1;childLayout=tableLayout;fixedRows=1;rowLines=0;fontStyle=1;align=center;resizeLast=1;" parent="1" vertex="1"><mxGeometry x="700" y="-45" width="180" height="60" as="geometry"/></mxCell><mxCell id="pWjKHq5pREKSBnfmIH6U-44" value="" style="shape=tableRow;horizontal=0;startSize=0;swimlaneHead=0;swimlaneBody=0;fillColor=none;collapsible=0;dropTarget=0;points=[[0,0.5],[1,0.5]];portConstraint=eastwest;top=0;left=0;right=0;bottom=0;" parent="pWjKHq5pREKSBnfmIH6U-40" vertex="1"><mxGeometry y="30" width="180" height="30" as="geometry"/></mxCell><mxCell id="pWjKHq5pREKSBnfmIH6U-45" value="" style="shape=partialRectangle;connectable=0;fillColor=none;top=0;left=0;bottom=0;right=0;editable=1;overflow=hidden;" parent="pWjKHq5pREKSBnfmIH6U-44" vertex="1"><mxGeometry width="30" height="30" as="geometry"><mxRectangle width="30" height="30" as="alternateBounds"/></mxGeometry></mxCell><mxCell id="pWjKHq5pREKSBnfmIH6U-46" value="Имя" style="shape=partialRectangle;connectable=0;fillColor=none;top=0;left=0;bottom=0;right=0;align=left;spacingLeft=6;overflow=hidden;" parent="pWjKHq5pREKSBnfmIH6U-44" vertex="1"><mxGeometry x="30" width="150" height="30" as="geometry"><mxRectangle width="150" height="30" as="alternateBounds"/></mxGeometry></mxCell><mxCell id="c6sAwi9QVTVZ_ExDH39v-26" value="Какой вопрос?" style="edgeStyle=orthogonalEdgeStyle;rounded=0;orthogonalLoop=1;jettySize=auto;html=1;startArrow=ERmandOne;startFill=0;endArrow=ERzeroToMany;endFill=0;" parent="1" source="pWjKHq5pREKSBnfmIH6U-53" target="c6sAwi9QVTVZ_ExDH39v-13" edge="1"><mxGeometry x="0.0041" relative="1" as="geometry"><mxPoint as="offset"/></mxGeometry></mxCell><mxCell id="pWjKHq5pREKSBnfmIH6U-53" value="Воображение" style="shape=table;startSize=30;container=1;collapsible=1;childLayout=tableLayout;fixedRows=1;rowLines=0;fontStyle=1;align=center;resizeLast=1;" parent="1" vertex="1"><mxGeometry x="880" y="100" width="180" height="120" as="geometry"/></mxCell><mxCell id="pWjKHq5pREKSBnfmIH6U-60" value="" style="shape=tableRow;horizontal=0;startSize=0;swimlaneHead=0;swimlaneBody=0;fillColor=none;collapsible=0;dropTarget=0;points=[[0,0.5],[1,0.5]];portConstraint=eastwest;top=0;left=0;right=0;bottom=0;" parent="pWjKHq5pREKSBnfmIH6U-53" vertex="1"><mxGeometry y="30" width="180" height="30" as="geometry"/></mxCell><mxCell id="pWjKHq5pREKSBnfmIH6U-61" value="" style="shape=partialRectangle;connectable=0;fillColor=none;top=0;left=0;bottom=0;right=0;editable=1;overflow=hidden;" parent="pWjKHq5pREKSBnfmIH6U-60" vertex="1"><mxGeometry width="30" height="30" as="geometry"><mxRectangle width="30" height="30" as="alternateBounds"/></mxGeometry></mxCell><mxCell id="pWjKHq5pREKSBnfmIH6U-62" value="Текст" style="shape=partialRectangle;connectable=0;fillColor=none;top=0;left=0;bottom=0;right=0;align=left;spacingLeft=6;overflow=hidden;" parent="pWjKHq5pREKSBnfmIH6U-60" vertex="1"><mxGeometry x="30" width="150" height="30" as="geometry"><mxRectangle width="150" height="30" as="alternateBounds"/></mxGeometry></mxCell><mxCell id="c6sAwi9QVTVZ_ExDH39v-3" style="shape=tableRow;horizontal=0;startSize=0;swimlaneHead=0;swimlaneBody=0;fillColor=none;collapsible=0;dropTarget=0;points=[[0,0.5],[1,0.5]];portConstraint=eastwest;top=0;left=0;right=0;bottom=0;" parent="pWjKHq5pREKSBnfmIH6U-53" vertex="1"><mxGeometry y="60" width="180" height="30" as="geometry"/></mxCell><mxCell id="c6sAwi9QVTVZ_ExDH39v-4" value="" style="shape=partialRectangle;connectable=0;fillColor=none;top=0;left=0;bottom=0;right=0;editable=1;overflow=hidden;" parent="c6sAwi9QVTVZ_ExDH39v-3" vertex="1"><mxGeometry width="30" height="30" as="geometry"><mxRectangle width="30" height="30" as="alternateBounds"/></mxGeometry></mxCell><mxCell id="c6sAwi9QVTVZ_ExDH39v-5" value="Город" style="shape=partialRectangle;connectable=0;fillColor=none;top=0;left=0;bottom=0;right=0;align=left;spacingLeft=6;overflow=hidden;" parent="c6sAwi9QVTVZ_ExDH39v-3" vertex="1"><mxGeometry x="30" width="150" height="30" as="geometry"><mxRectangle width="150" height="30" as="alternateBounds"/></mxGeometry></mxCell><mxCell id="c6sAwi9QVTVZ_ExDH39v-6" style="shape=tableRow;horizontal=0;startSize=0;swimlaneHead=0;swimlaneBody=0;fillColor=none;collapsible=0;dropTarget=0;points=[[0,0.5],[1,0.5]];portConstraint=eastwest;top=0;left=0;right=0;bottom=0;" parent="pWjKHq5pREKSBnfmIH6U-53" vertex="1"><mxGeometry y="90" width="180" height="30" as="geometry"/></mxCell><mxCell id="c6sAwi9QVTVZ_ExDH39v-7" value="" style="shape=partialRectangle;connectable=0;fillColor=none;top=0;left=0;bottom=0;right=0;editable=1;overflow=hidden;" parent="c6sAwi9QVTVZ_ExDH39v-6" vertex="1"><mxGeometry width="30" height="30" as="geometry"><mxRectangle width="30" height="30" as="alternateBounds"/></mxGeometry></mxCell><mxCell id="c6sAwi9QVTVZ_ExDH39v-8" value="Настроение" style="shape=partialRectangle;connectable=0;fillColor=none;top=0;left=0;bottom=0;right=0;align=left;spacingLeft=6;overflow=hidden;" parent="c6sAwi9QVTVZ_ExDH39v-6" vertex="1"><mxGeometry x="30" width="150" height="30" as="geometry"><mxRectangle width="150" height="30" as="alternateBounds"/></mxGeometry></mxCell><mxCell id="pWjKHq5pREKSBnfmIH6U-70" value="Дорога" style="shape=table;startSize=30;container=1;collapsible=1;childLayout=tableLayout;fixedRows=1;rowLines=0;fontStyle=1;align=center;resizeLast=1;" parent="1" vertex="1"><mxGeometry x="395" y="280" width="200" height="120" as="geometry"/></mxCell><mxCell id="pWjKHq5pREKSBnfmIH6U-94" style="shape=tableRow;horizontal=0;startSize=0;swimlaneHead=0;swimlaneBody=0;fillColor=none;collapsible=0;dropTarget=0;points=[[0,0.5],[1,0.5]];portConstraint=eastwest;top=0;left=0;right=0;bottom=0;" parent="pWjKHq5pREKSBnfmIH6U-70" vertex="1"><mxGeometry y="30" width="200" height="30" as="geometry"/></mxCell><mxCell id="pWjKHq5pREKSBnfmIH6U-95" style="shape=partialRectangle;connectable=0;fillColor=none;top=0;left=0;bottom=0;right=0;editable=1;overflow=hidden;" parent="pWjKHq5pREKSBnfmIH6U-94" vertex="1"><mxGeometry width="60" height="30" as="geometry"><mxRectangle width="60" height="30" as="alternateBounds"/></mxGeometry></mxCell><mxCell id="pWjKHq5pREKSBnfmIH6U-96" value="Название" style="shape=partialRectangle;connectable=0;fillColor=none;top=0;left=0;bottom=0;right=0;align=left;spacingLeft=6;overflow=hidden;" parent="pWjKHq5pREKSBnfmIH6U-94" vertex="1"><mxGeometry x="60" width="140" height="30" as="geometry"><mxRectangle width="140" height="30" as="alternateBounds"/></mxGeometry></mxCell><mxCell id="pWjKHq5pREKSBnfmIH6U-77" value="" style="shape=tableRow;horizontal=0;startSize=0;swimlaneHead=0;swimlaneBody=0;fillColor=none;collapsible=0;dropTarget=0;points=[[0,0.5],[1,0.5]];portConstraint=eastwest;top=0;left=0;right=0;bottom=0;" parent="pWjKHq5pREKSBnfmIH6U-70" vertex="1"><mxGeometry y="60" width="200" height="30" as="geometry"/></mxCell><mxCell id="pWjKHq5pREKSBnfmIH6U-78" value="" style="shape=partialRectangle;connectable=0;fillColor=none;top=0;left=0;bottom=0;right=0;editable=1;overflow=hidden;" parent="pWjKHq5pREKSBnfmIH6U-77" vertex="1"><mxGeometry width="60" height="30" as="geometry"><mxRectangle width="60" height="30" as="alternateBounds"/></mxGeometry></mxCell><mxCell id="pWjKHq5pREKSBnfmIH6U-79" value="Конец" style="shape=partialRectangle;connectable=0;fillColor=none;top=0;left=0;bottom=0;right=0;align=left;spacingLeft=6;overflow=hidden;" parent="pWjKHq5pREKSBnfmIH6U-77" vertex="1"><mxGeometry x="60" width="140" height="30" as="geometry"><mxRectangle width="140" height="30" as="alternateBounds"/></mxGeometry></mxCell><mxCell id="c6sAwi9QVTVZ_ExDH39v-27" style="shape=tableRow;horizontal=0;startSize=0;swimlaneHead=0;swimlaneBody=0;fillColor=none;collapsible=0;dropTarget=0;points=[[0,0.5],[1,0.5]];portConstraint=eastwest;top=0;left=0;right=0;bottom=0;" parent="pWjKHq5pREKSBnfmIH6U-70" vertex="1"><mxGeometry y="90" width="200" height="30" as="geometry"/></mxCell><mxCell id="c6sAwi9QVTVZ_ExDH39v-28" style="shape=partialRectangle;connectable=0;fillColor=none;top=0;left=0;bottom=0;right=0;editable=1;overflow=hidden;" parent="c6sAwi9QVTVZ_ExDH39v-27" vertex="1"><mxGeometry width="60" height="30" as="geometry"><mxRectangle width="60" height="30" as="alternateBounds"/></mxGeometry></mxCell><mxCell id="c6sAwi9QVTVZ_ExDH39v-29" value="Расположение" style="shape=partialRectangle;connectable=0;fillColor=none;top=0;left=0;bottom=0;right=0;align=left;spacingLeft=6;overflow=hidden;" parent="c6sAwi9QVTVZ_ExDH39v-27" vertex="1"><mxGeometry x="60" width="140" height="30" as="geometry"><mxRectangle width="140" height="30" as="alternateBounds"/></mxGeometry></mxCell><mxCell id="pWjKHq5pREKSBnfmIH6U-104" value="Машина на дороге" style="edgeStyle=orthogonalEdgeStyle;rounded=0;jumpStyle=none;orthogonalLoop=1;jettySize=auto;html=1;startArrow=ERmandOne;startFill=0;endArrow=ERzeroToMany;endFill=0;" parent="1" source="pWjKHq5pREKSBnfmIH6U-70" target="pWjKHq5pREKSBnfmIH6U-27" edge="1"><mxGeometry relative="1" as="geometry"><mxPoint x="590" y="295" as="sourcePoint"/><Array as="points"><mxPoint x="440" y="230"/><mxPoint x="440" y="230"/></Array></mxGeometry></mxCell><mxCell id="pWjKHq5pREKSBnfmIH6U-107" value="Представляет" style="edgeStyle=orthogonalEdgeStyle;rounded=0;jumpStyle=none;orthogonalLoop=1;jettySize=auto;html=1;startArrow=ERzeroToMany;startFill=0;endArrow=ERmandOne;endFill=0;" parent="1" source="pWjKHq5pREKSBnfmIH6U-53" target="pWjKHq5pREKSBnfmIH6U-40" edge="1"><mxGeometry relative="1" as="geometry"><mxPoint x="980" y="225" as="sourcePoint"/><mxPoint x="860" y="85" as="targetPoint"/><Array as="points"><mxPoint x="930" y="80"/><mxPoint x="930" y="80"/></Array></mxGeometry></mxCell><mxCell id="pWjKHq5pREKSBnfmIH6U-108" value="Какой город представляется?" style="edgeStyle=orthogonalEdgeStyle;rounded=0;jumpStyle=none;orthogonalLoop=1;jettySize=auto;html=1;startArrow=ERzeroToMany;startFill=0;endArrow=ERzeroToOne;endFill=0;" parent="1" source="pWjKHq5pREKSBnfmIH6U-53" target="pWjKHq5pREKSBnfmIH6U-14" edge="1"><mxGeometry x="-0.0968" relative="1" as="geometry"><mxPoint x="980" y="225" as="sourcePoint"/><Array as="points"><mxPoint x="940" y="260"/><mxPoint x="940" y="260"/></Array><mxPoint as="offset"/></mxGeometry></mxCell><mxCell id="pWjKHq5pREKSBnfmIH6U-109" value="Едет в" style="edgeStyle=orthogonalEdgeStyle;rounded=0;jumpStyle=none;orthogonalLoop=1;jettySize=auto;html=1;startArrow=ERzeroToOne;startFill=0;endArrow=ERzeroToMany;endFill=0;" parent="1" source="pWjKHq5pREKSBnfmIH6U-27" target="pWjKHq5pREKSBnfmIH6U-40" edge="1"><mxGeometry relative="1" as="geometry"><mxPoint x="589.9999999999998" y="105" as="sourcePoint"/><mxPoint x="680" y="85" as="targetPoint"/></mxGeometry></mxCell><mxCell id="c6sAwi9QVTVZ_ExDH39v-13" value="Вопрос" style="shape=table;startSize=30;container=1;collapsible=1;childLayout=tableLayout;fixedRows=1;rowLines=0;fontStyle=1;align=center;resizeLast=1;html=1;" parent="1" vertex="1"><mxGeometry x="520" y="130" width="180" height="60" as="geometry"/></mxCell><mxCell id="c6sAwi9QVTVZ_ExDH39v-17" value="" style="shape=tableRow;horizontal=0;startSize=0;swimlaneHead=0;swimlaneBody=0;fillColor=none;collapsible=0;dropTarget=0;points=[[0,0.5],[1,0.5]];portConstraint=eastwest;top=0;left=0;right=0;bottom=0;" parent="c6sAwi9QVTVZ_ExDH39v-13" vertex="1"><mxGeometry y="30" width="180" height="30" as="geometry"/></mxCell><mxCell id="c6sAwi9QVTVZ_ExDH39v-18" value="" style="shape=partialRectangle;connectable=0;fillColor=none;top=0;left=0;bottom=0;right=0;editable=1;overflow=hidden;whiteSpace=wrap;html=1;" parent="c6sAwi9QVTVZ_ExDH39v-17" vertex="1"><mxGeometry width="30" height="30" as="geometry"><mxRectangle width="30" height="30" as="alternateBounds"/></mxGeometry></mxCell><mxCell id="c6sAwi9QVTVZ_ExDH39v-19" value="Текст" style="shape=partialRectangle;connectable=0;fillColor=none;top=0;left=0;bottom=0;right=0;align=left;spacingLeft=6;overflow=hidden;whiteSpace=wrap;html=1;" parent="c6sAwi9QVTVZ_ExDH39v-17" vertex="1"><mxGeometry x="30" width="150" height="30" as="geometry"><mxRectangle width="150" height="30" as="alternateBounds"/></mxGeometry></mxCell></root></mxGraphModel></diagram></mxfile>